# xmcd
#
# Track frame offsets: 
#        150
#        13657
#        33401
#        53130
#        69331
#        82440
#        106342
#        128475
#        144352
#        158346
#        178120
#        200693
#        218508
#        235307
#
# Disc length: 3497 seconds
#
# Revision: 0
# Processed by: cddbd v1.5.2PL0 Copyright (c) Steve Scherf et al.
# Submitted via: ExactAudioCopy v1.2
#
DISCID=ba0da70e
DTITLE=Catfish Keith - Mississippi River Blues
DYEAR=2017
DGENRE=Blues
TTITLE0=It Wont Be Long Now
TTITLE1=Just Can't Keep From Crying
TTITLE2=Please Baby
TTITLE3=Telling You Pretty Mama
TTITLE4=Sleepy-Eyed John
TTITLE5=Reefer Hound
TTITLE6=Mississippi River Blues
TTITLE7=The Whale Swallowed Jonah
TTITLE8=Cancion Mixteca
TTITLE9=Jumpin' Jack Rabbit
TTITLE10=Candyman
TTITLE11=Weed
TTITLE12=Mama Don't You Sell It, Papa Don't You Give It Away
TTITLE13=Shake Sugaree
EXTD=
EXTT0=
EXTT1=
EXTT2=
EXTT3=
EXTT4=
EXTT5=
EXTT6=
EXTT7=
EXTT8=
EXTT9=
EXTT10=
EXTT11=
EXTT12=
EXTT13=
PLAYORDER=
